inDegrees=no
num_controls=7
num_derivatives=13
num_iterations=176
num_multipliers=7
num_parameters=0
num_slacks=7
num_states=26
objective=0.509258
objective_accelerations=0.041921
objective_balance=0.003646
objective_effort=0.029993
objective_height=0.321226
objective_ligament=0.112472
solver_duration=2664.040659
status=Solve_Succeeded
success=true
DataType=double
version=3
OpenSimVersion=4.5
endheader
time	/jointset/ground_pelvis/pelvis_tilt/value	/jointset/ground_pelvis/pelvis_tx/value	/jointset/ground_pelvis/pelvis_ty/value	/jointset/hip_l/hip_flexion_l/value	/jointset/hip_l/hip_adduction_l/value	/jointset/hip_l/hip_rotation_l/value	/jointset/back/lumbar_extension/value	/jointset/patellofemoral_l/patellar_flexion_l/value	/jointset/knee_l/knee_flexion_l/value	/jointset/knee_l/knee_adduction_l/value	/jointset/knee_l/knee_rotation_l/value	/jointset/ankle_l/ankle_angle_l/value	/jointset/subtalar_l/subtalar_angle_l/value	/jointset/ground_pelvis/pelvis_tilt/speed	/jointset/ground_pelvis/pelvis_tx/speed	/jointset/ground_pelvis/pelvis_ty/speed	/jointset/hip_l/hip_flexion_l/speed	/jointset/hip_l/hip_adduction_l/speed	/jointset/hip_l/hip_rotation_l/speed	/jointset/back/lumbar_extension/speed	/jointset/patellofemoral_l/patellar_flexion_l/speed	/jointset/knee_l/knee_flexion_l/speed	/jointset/knee_l/knee_adduction_l/speed	/jointset/knee_l/knee_rotation_l/speed	/jointset/ankle_l/ankle_angle_l/speed	/jointset/subtalar_l/subtalar_angle_l/speed	/forceset/tau_hip_flexion_l	/forceset/tau_hip_adduction_l	/forceset/tau_hip_rotation_l	/forceset/tau_knee_flexion_l	/forceset/tau_ankle_angle_l	/forceset/tau_subtalar_angle_l	/forceset/tau_lumbar_extension	lambda_cid13_p0	lambda_cid13_p1	lambda_cid13_p2	lambda_cid13_p3	lambda_cid13_p4	lambda_cid13_p5	lambda_cid14_p0	/jointset/ground_pelvis/pelvis_tilt/accel	/jointset/ground_pelvis/pelvis_tx/accel	/jointset/ground_pelvis/pelvis_ty/accel	/jointset/hip_l/hip_flexion_l/accel	/jointset/hip_l/hip_adduction_l/accel	/jointset/hip_l/hip_rotation_l/accel	/jointset/back/lumbar_extension/accel	/jointset/patellofemoral_l/patellar_flexion_l/accel	/jointset/knee_l/knee_flexion_l/accel	/jointset/knee_l/knee_adduction_l/accel	/jointset/knee_l/knee_rotation_l/accel	/jointset/ankle_l/ankle_angle_l/accel	/jointset/subtalar_l/subtalar_angle_l/accel	gamma_cid13_p0	gamma_cid13_p1	gamma_cid13_p2	gamma_cid13_p3	gamma_cid13_p4	gamma_cid13_p5	gamma_cid14_p0
1	-0.1680320187950392	-0.07615805170852731	0.7204916183340304	1.274842389723577	-0.331335028136979	0.02019440479270635	-0.9599305617553551	1.206031703732626	1.206031703733073	-0.0902355088952866	-0.1744342221646073	0.1809470057554964	0.02167094982410205	0.1081970494069428	0.02189632664963703	0.06408300460333291	-0.282758189006661	0.001938255905871927	-0.06182725780238407	-0.001490000563382707	-0.1576204581934245	-0.1576204581934477	0.005223211077044617	0.005566342000840374	0.009436299822889649	0.006865349114430194	-0.4194319131750137	0.04033460807498426	-0.003859619693390148	-0.2769899362336074	0.04164143769163865	0.03245774532568625	0.4480217948270008	-37.26393854000222	-7.498810758111897	0.6578903388227525	14.97548337431988	-792.8663727244884	-56.69089538234339	-0.9809690586285252	1.250131561110893	0.06563543474537467	1.346255857289718	-4.960856168625984	0.1180766867184927	-1.762699895993624	0.2687722009270456	-4.476194337882418	-4.476194337882624	0.2247958477842213	0.1536359241100485	-1.019395649428594	-0.2144903761788184	-1.159677119976854e-08	-2.542261098968108e-09	5.138729354721488e-08	1.162825973991881e-08	-2.82426800589592e-08	6.477220977698693e-08	-1.164366235265162e-08
1.01	-0.1668883800583523	-0.07593572041822197	0.7211995879443515	1.271767867506	-0.3313089620418043	0.01948753780245582	-0.959930548471805	1.204231811620861	1.204231811621089	-0.09017045187777428	-0.1743700362415959	0.1809905103524622	0.02172985841973026	0.120496503763364	0.02258093800772282	0.07750564903219029	-0.3321227726094277	0.003287114298111333	-0.07954156521792077	0.001580703765453968	-0.2023800099005555	-0.2023800099005741	0.007788384478466239	0.007277768223456491	-0.0007452862182889407	0.004926853657351375	-0.4190810472385293	0.0405096623124672	-0.003898199807978745	-0.2769372215199125	0.04178583969647939	0.03257208647797323	0.4482445045686209	-37.21564856982074	-7.564428111058323	0.6769226899515168	14.73886844594382	-793.0447503903449	-56.8072810617678	-1.008751256746198	1.214722056985745	0.0715279830407851	1.339471819400072	-4.920739272499187	0.1451085307530985	-1.775125168247387	0.3394265167747809	-4.479139156083696	-4.479139156082866	0.2723985816942538	0.180951384865924	-1.019026799621397	-0.1819628290918732	-1.677569741409885e-08	-1.314418570235304e-08	7.204302645487025e-08	1.500121626538093e-08	-3.32098493682444e-08	7.219772262495628e-08	-1.641234202860994e-08
1.02	-0.1656227728412903	-0.07570621221499564	0.7220416246157043	1.268200403489101	-0.3312690437396569	0.01860366193728084	-0.9598971867510845	1.201983663278234	1.201983663278254	-0.0900797390271792	-0.1742885249736477	0.1809319017453843	0.0217696953210637	0.1325907454829062	0.02333170923383658	0.09089641680972153	-0.3813465488680846	0.004708697301402586	-0.09722903279000027	0.005179686810804855	-0.2472717043658966	-0.2472717043659096	0.01035437769480987	0.009031410987211289	-0.01098634098582279	0.003051010255492718	-0.4187301813020831	0.04068471654996166	-0.003936779922737613	-0.2768845068062186	0.04193024170133158	0.03268642763028095	0.4484672143102033	-37.17910345135094	-7.626567999855671	0.6937774086686692	14.5524765555301	-793.378316744208	-56.91117389295506	-1.043934064440865	1.209089033735022	0.07886740835104125	1.339880527024501	-4.932694699804024	0.1326216089288186	-1.75733192730222	0.3744279442293932	-4.502622889524379	-4.502622889524384	0.2249598107686011	0.1620792323376984	-1.031289394699537	-0.2019599651347984	-1.89108004221976e-08	-2.34418628928085e-08	9.383641637630055e-08	1.176833291001364e-08	-3.324164779110243e-08	8.079922895697894e-08	-2.161257719573376e-08
1.03	-0.164237497106158	-0.07546876658726248	0.7230171403728133	1.264142271319927	-0.3312146223861197	0.01754327147555844	-0.959824466003446	1.199286829600607	1.199286829600701	-0.0899633981750792	-0.1741895090876979	0.1807708987267541	0.0217911112083646	0.1444019685307185	0.02417825031581722	0.1041740561402277	-0.4301654585605633	0.006182018075166036	-0.1148250723040824	0.009529357544688175	-0.2920270957290811	-0.2920270957290608	0.01291627101081348	0.01075631791347276	-0.02119235864837219	0.00124756913458837	-0.4181239782874017	0.04077345250127825	-0.003993183231472647	-0.2763563399093451	0.04229396495902768	0.03288939499567568	0.4485995307238316	-37.01269338673665	-7.758842946059803	0.7319867721370288	14.04882103925593	-792.9898101139052	-57.05380776679025	-1.086872485817506	1.157771727593466	0.09067423239205762	1.31679722080239	-4.839328193329149	0.1556450213522289	-1.757165886698194	0.4899708618438752	-4.451801550101959	-4.451801550096941	0.2721626900041045	0.1754050274145497	-1.011973191661931	-0.1672340924458379	-2.101484400982458e-08	-3.37364355178259e-08	1.156414150427694e-07	8.468043025250092e-09	-3.322308528654791e-08	8.941273522251235e-08	-2.681721599031844e-08
1.04	-0.162735982583094	-0.07522223019385543	0.7241244508401755	1.259599382235945	-0.3311452762828986	0.01630763543405957	-0.9597033017036879	1.196144481151272	1.196144481151448	-0.08982136667022932	-0.1740737024115527	0.1805084924835723	0.02179495310308087	0.1558385030700975	0.02514986236861539	0.1172553588603159	-0.4782979318274176	0.007693647239009501	-0.1322781487476385	0.01486839723362292	-0.336374658707724	-0.3363746587076703	0.01549250824632873	0.01238956902549926	-0.03126698589609202	-0.0004637882614205073	-0.4175177752727475	0.04086218845260466	-0.004049586540375937	-0.2758281730124717	0.04265768821673305	0.03309236236108821	0.4487318471374326	-36.85793425331919	-7.887740994578451	0.7681306086026967	13.59449284188203	-792.7554447687513	-57.18520535222832	-1.137921973014481	1.13415133204827	0.1038816025146244	1.300613204940925	-4.795407414679136	0.1402832869447845	-1.728739313197066	0.5723017352396068	-4.421057212616007	-4.421057212616033	0.2278285946709025	0.1437480694906312	-1.005011311733504	-0.1835432201557075	-2.533324556455663e-08	-4.248421831794818e-08	1.298095312570106e-07	1.223749098687419e-08	-4.001797246006855e-08	9.088105471004661e-08	-2.969350588299164e-08
